<?xml version="1.0" encoding="UTF-8"?>
<svg id="Capa_1" data-name="Capa 1" xmlns="http://www.w3.org/2000/svg" viewBox="0 0 120.25 97.02">
  <defs>
    <style>
      .cls-1 {
        fill: #66a6d4;
      }

      .cls-2 {
        fill: #68b9e0;
      }

      .cls-3 {
        fill: #65add9;
      }

      .cls-4 {
        fill: #834d97;
      }

      .cls-5 {
        fill: #725493;
      }

      .cls-6 {
        fill: #7bc1e5;
      }

      .cls-7 {
        fill: #684388;
      }

      .cls-8 {
        fill: #715795;
      }

      .cls-9 {
        fill: #735392;
      }

      .cls-10 {
        fill: #715798;
      }

      .cls-11 {
        fill: #784d91;
      }
    </style>
  </defs>
  <path class="cls-11" d="M17.17,66.23s-.05,.1-.05,.15c-.03-.03-.06-.07-.07-.1,.03-.02,.07-.03,.1-.05h.02Z"/>
  <path class="cls-7" d="M31.3,77.35c-.2,.06-.41,.12-.61,.18,.03-.14,.07-.26,.12-.37,.16,.07,.32,.13,.49,.19Z"/>
  <path class="cls-11" d="M17.17,66.23s-.05,.1-.05,.15c-.03-.03-.06-.07-.07-.1-.12-.21,.08-.4,.11-.6,.27,.2,.11,.37,.01,.55Z"/>
  <path class="cls-9" d="M35.79,36.5c-.02,.21-.04,.43-.05,.64-.02-.36-.03-.55,.05-.64Z"/>
  <path class="cls-4" d="M35.43,50.97c1.4,1.31-5.86,1.85-7.01,3.33-1.23,.67-2.2,.75-3.07-.45C10.61,41.56,6.07,20.31,5.44,2.04c3.21,7.27,7.48,13.52,14.54,17.4,1.07,.06,.95-.91,1.2-1.48,3.22-7.4,8-13.71,15.06-17.96-6.77,16.28-8.71,34.92-.81,50.97Z"/>
  <path class="cls-4" d="M80.71,7.9c-15.55,9.9-20.61,28.34-25.09,43.37-17.47-2.31-17.79,2.52-19.88-14.13-1.55-10.29-.85-22.02,3.11-31.44,.75,7.65,3.6,15.89,7.77,22.1,9.13-9.22,20.46-17.95,34.09-19.9Z"/>
  <path class="cls-4" d="M35.79,36.5c-.02,.21-.04,.43-.05,.64-.02-.36-.03-.55,.05-.64Z"/>
  <path class="cls-8" d="M64.85,54.54c-.64-.54-1.08-.91-1.33-1.24,.12,.13,.31,.24,.58,.34,.4,.15,.75,.39,.75,.9Z"/>
  <path class="cls-11" d="M108.42,52.78c-10.64-1.41-20.43,4.63-29.74,6.47-17.59,.12,14.01-21.92,20.68-21.85-18.3,16.46-1,6.76,9.06,15.38Z"/>
  <path class="cls-5" d="M64.85,54.54c-.64-.54-1.08-.91-1.33-1.24,.12,.13,.31,.24,.58,.34,.4,.15,.75,.39,.75,.9Z"/>
  <path class="cls-6" d="M17.17,66.23s-.05,.1-.05,.15c-.03-.03-.06-.07-.07-.1-.12-.21,.08-.4,.11-.6,.27,.2,.11,.37,.01,.55Z"/>
  <path class="cls-2" d="M13.14,74.24c-.24,.08-.47,.2-.69,.39-1.07-.02-2.15-.04-3.23-.06,1-.54,2.07-.52,3.15-.42,.04,0,.07,.01,.11,.01,.22,.03,.44,.05,.66,.08Z"/>
  <path class="cls-3" d="M31.3,77.35c-.2,.06-.41,.12-.61,.18,.03-.14,.07-.26,.12-.37,.16,.07,.32,.13,.49,.19Z"/>
  <path class="cls-1" d="M31.3,77.35c-.2,.06-.41,.12-.61,.18,.03-.14,.07-.26,.12-.37,.16,.07,.32,.13,.49,.19Z"/>
  <path class="cls-4" d="M50.48,17.61c-9.53,.37-5.74-13.24,2.5-8.57,3.92,2.34,2.32,8.5-2.5,8.57Z"/>
  <path class="cls-4" d="M19.61,10.8c-4.24,1.58-7.9-4.42-5.31-7.72,1.68-3.25,7.93-2.59,8.7,1.35,.92,2.93-.41,5.47-3.39,6.37Z"/>
  <path class="cls-11" d="M101.59,32.33c-21.89-.13-31.88,29.6-38.07,20.97,.25,.33,.69,.7,1.33,1.24-13.26-6.81,14.62-44.51,25.36-47.89-15.68,36.3-9.9,21.57,11.38,25.68Z"/>
  <path class="cls-4" d="M23,4.42c-.04-.14-.09-.28-.14-.42,.1,.16,.14,.3,.14,.42Z"/>
  <path class="cls-10" d="M100.19,47.5c-.15,.03-.38-.02-.54-.12,.18,.05,.36,.1,.54,.12Z"/>
  <path class="cls-4" d="M92.47,27.3c-1.18,.16-2.33,.17-3.31-.66-4.96-2.41-1.71-10.72,3.67-9.05,5.3,.8,5.23,9.31-.36,9.71Z"/>
  <path class="cls-11" d="M103.57,45.97c-1.07,2.47-5.61,1.99-6.02-.76-1.34-6.13,8.89-4.45,6.02,.76Z"/>
  <path class="cls-11" d="M119.23,65.94c-8.79,6.25-17.79,12.75-26.31,19.11C53.32,117.43,26.65,64.34,0,97.02c2.36-11.92,7.83-23.41,17.16-31.34-.05,.23-.27,.49-.04,.7,.03-.26,.39-.44,.04-.7,35.98-29,47.09,2.16,69.45-3.91,2.22-1.08,1.76,1.67,1.24,2.82-.06,.5,.07,1.04-.39,1.43-5.17,16.05-30.87-3.1-38.06,3.94,1.56,13.9,33.05,9.24,41.61,3.83,8.57-4.69,17.72-8.98,27.63-9.55,1.68-.38,2.31,.92,.59,1.7Z"/>
</svg>